<svg version="1.1" xmlns="http://www.w3.org/2000/svg" xmlns:xlink="http://www.w3.org/1999/xlink" width="481.95636" height="359.22563" viewBox="0,0,481.95636,359.22563"><defs><clipPath id="clip-1"><path d="M454.34671,43.36206c24.57999,0 24.57999,24.57999 24.57999,24.57999v221.2329c0,24.57999 -24.57999,24.57999 -24.57999,24.57999h-430.16931c-24.57999,0 -24.57999,-24.57999 -24.57999,-24.57999v-221.2329c0,-24.57999 24.57999,-24.57999 24.57999,-24.57999" fill="none" stroke="none" stroke-width="1" stroke-miterlimit="10"/></clipPath><clipPath id="clip-2"><path d="M454.34671,43.36206c24.57999,0 24.57999,24.57999 24.57999,24.57999v221.2329c0,24.57999 -24.57999,24.57999 -24.57999,24.57999h-430.16931c-24.57999,0 -24.57999,-24.57999 -24.57999,-24.57999v-221.2329c0,-24.57999 24.57999,-24.57999 24.57999,-24.57999" fill="none"/></clipPath></defs><g transform="translate(0.97818,-0.38719)"><g data-paper-data="{&quot;isPaintingLayer&quot;:true}" stroke-linecap="butt" stroke-linejoin="miter" stroke-dasharray="" stroke-dashoffset="0" style="mix-blend-mode: normal"><path d="M-0.97818,359.61282v-359.22563h481.95636v359.22563z" fill="#000000" fill-rule="nonzero" stroke="none" stroke-width="0" stroke-miterlimit="10"/><path d="M411.16752,179.52321v89.2124h-83.60014l-0.26966,0.54275c-24.81084,25.68242 -55.82344,38.65868 -92.23096,38.65868c-36.40622,-0.00085 -67.41925,-12.97626 -93.03865,-38.65868v-0.54275h-80.36335v-89.2124h43.41738v-1.3513c0,-35.95694 12.6753,-66.50438 38.29427,-91.91715c25.08051,-25.68328 55.82388,-38.1185 91.69079,-38.1185c35.59853,-0.00043 66.07138,12.43566 91.15147,38.1185c25.61941,25.41233 38.29513,55.96064 38.29513,91.91715v1.3513z" fill="#fff300" fill-rule="evenodd" stroke="#000000" stroke-width="1" stroke-miterlimit="10"/><path d="M319.47715,93.01254c24.00102,23.52086 35.59639,51.90588 35.59681,85.15892c0,32.98167 -11.5958,61.36884 -35.59639,84.88841c-23.1929,23.79008 -51.50889,35.41462 -84.4104,35.41462c-33.16988,0 -61.48545,-11.62453 -84.948,-35.41462c-23.73135,-23.52 -35.59767,-51.9076 -35.59767,-84.88841c0,-33.25262 11.86633,-61.63807 35.59767,-85.1585c23.46255,-23.79008 51.77812,-35.41504 84.948,-35.41504c32.90108,0 61.2175,11.62453 84.40996,35.41462z" fill="#00a0ff" fill-rule="evenodd" stroke="none" stroke-width="1" stroke-miterlimit="10"/><path d="M351.83807,178.17147c0,-32.71115 -11.05649,-60.28634 -33.97886,-83.26658c-22.92323,-22.97896 -50.42982,-34.3334 -82.79201,-34.33297c-32.90065,0 -60.13887,11.35358 -83.06081,34.33297c-22.92323,22.97983 -34.24851,50.555 -34.24851,83.26658c0,32.4415 11.32485,60.01625 34.24851,82.99608c22.92237,22.97896 50.16017,34.33212 83.06081,34.33297c32.36218,0 59.86877,-11.35487 82.79201,-34.33297c22.92237,-22.97983 33.97886,-50.55458 33.97886,-82.99608zM321.90451,90.84969c23.73135,23.79052 35.86648,53.25846 35.86648,87.32178c0,33.79279 -12.13555,63.26031 -35.86733,87.05126c-24.00059,23.79008 -53.12642,35.95565 -86.83691,35.95565c-34.24851,0 -63.37392,-12.16642 -87.10571,-35.95565c-24.00102,-23.79095 -36.137,-53.25846 -36.137,-87.05126c0,-34.06332 12.13598,-63.5317 36.137,-87.32135c23.73179,-23.79052 52.85719,-35.6847 87.10571,-35.6847c33.71049,0 62.83718,11.89333 86.83776,35.68427z" fill="#000000" fill-rule="evenodd" stroke="none" stroke-width="1" stroke-miterlimit="10"/><path d="M351.89981,178.17153c0,32.4415 -11.07459,60.05986 -33.99696,83.03969c-22.92323,22.97811 -50.47332,34.35104 -82.83551,34.35104c-32.90065,-0.00085 -60.18215,-11.372 -83.10452,-34.35097c-22.92366,-22.97983 -34.26669,-50.59826 -34.26669,-83.03976c0,-32.71158 11.34346,-60.33059 34.26669,-83.31041c22.92195,-22.97939 50.20388,-34.35097 83.10452,-34.35097c32.36218,-0.00043 59.91228,11.37208 82.83551,34.35104c22.92237,22.98025 33.99696,50.59918 33.99696,83.31034z" data-paper-data="{&quot;noHover&quot;:false,&quot;origItem&quot;:[&quot;Path&quot;,{&quot;applyMatrix&quot;:true,&quot;segments&quot;:[[[339.12777,170.7137],[0,0],[0,-26.48872]],[[311.61249,103.28637],[18.562,18.60887],[-18.56269,-18.60782]],[[244.56947,75.48434],[26.20613,-0.00035],[-26.64217,0]],[[177.30879,103.28637],[18.56165,-18.60817],[-18.56269,18.60852]],[[149.57514,170.7137],[0,-26.48907],[0,26.27036]],[[177.30879,237.92196],[-18.56304,-18.60852],[18.562,18.60782]],[[244.56947,265.724],[-26.64217,-0.00069],[26.20613,0]],[[311.61249,237.92196],[-18.56269,18.60713],[18.562,-18.60852]],[[339.12777,170.7137],[0,26.27036],[0,0]]],&quot;closed&quot;:true,&quot;fillColor&quot;:[0,0,0,1]}]}" fill="#ff2700" fill-rule="nonzero" stroke="none" stroke-width="0.5" stroke-miterlimit="10"/><path d="M70.56353,188.98573h332.51333v72.18181h-332.51333z" fill="#000000" fill-rule="evenodd" stroke="none" stroke-width="1" stroke-miterlimit="10"/><path d="M69.75499,261.9791v-73.80491h334.40095v73.80491z" fill="#000000" fill-rule="nonzero" stroke="none" stroke-width="0.5" stroke-miterlimit="10"/><path d="M233.18001,272.52112l1.07821,0.81241l1.34916,-0.54189l0.80855,-1.3513c0,1.3513 0.53889,2.43337 0.80855,1.89319l5.39406,-2.70388c1.88762,-0.54189 2.42736,0 1.07993,0.54017l-1.07993,2.16371l2.42736,-0.54189c-1.07864,1.3513 -1.07906,2.43423 -0.53975,2.43423l2.15771,-2.43423l2.42694,-4.32484l1.3483,-1.89319l1.34873,-0.54017l1.3483,0.54017l2.15727,-0.8107l0.81026,0.8107c0,0.54189 0.53889,0.81156 1.07778,0.54189h2.15727c0.54061,0 0.80941,0.26966 0.54017,0.8107l0.80941,1.89234l3.23548,0.26966l-1.3483,1.08164c-3.23677,0 -3.23677,0.27052 -0.53975,1.35216l3.50643,1.62096h-2.15727c0.53889,1.08164 0.53889,1.35216 -0.00043,1.35216h-1.3483l-0.80941,0.54104l0.26966,2.16286l2.6966,1.89234l3.77609,-0.81241c0.80897,-1.89147 0.26966,-2.43166 -1.0795,-1.35045l-0.80855,0.27052h-0.80941l1.34873,-1.62182c0.80941,-0.54104 1.3483,-1.08164 0.80941,-1.3513l-0.80941,-1.89234l0.26966,-3.51501c0.53975,-0.54017 1.07864,-0.54017 1.88762,0l0.80941,-2.43337c1.07906,-1.3513 1.88762,-1.62182 2.6966,-1.3513l2.69617,1.3513c1.34916,0.54017 2.4278,1.08164 1.88762,1.89319l-1.88762,0.54017c-0.26924,-0.54017 -0.80855,0 -1.61838,0.27052c0,1.3513 0.27052,1.89234 1.34916,1.08078l2.96712,-0.54017l1.07864,1.89147l-2.69746,0.27052l-1.88676,0.54189l3.50601,0.80984c1.88676,-0.26966 2.6966,-0.26966 2.6966,1.0825l-0.26966,1.62182l-2.42694,1.3513l1.3483,1.08036l-0.26966,1.35301l2.69703,-0.54104v-2.16286l0.80855,-1.3513l0.53932,-1.35216l0.80984,2.16286c0.80813,-0.8107 1.3483,-0.8107 1.3483,-0.54017c-0.54017,2.43166 -0.54017,3.24363 0,3.24363c0.53932,0 0.80897,-0.81156 0.80897,-2.16286l1.07821,-1.89234l1.3483,-1.3513l0.80941,-0.54189v1.89319l0.54104,0.54104l2.15599,-1.35216l1.88891,0.27052l1.61667,0.54104c-1.61667,0.81156 -2.69703,1.89234 -2.15727,2.16286c0.80941,0.54104 1.88762,0.54104 2.15727,0l2.69831,-0.81156c1.34745,0.54104 3.23463,-0.54017 5.12226,-2.16199l4.31456,-3.78553h1.07993l-0.53975,1.89319c-7.55048,7.29882 -17.5296,12.97626 -28.85618,17.03144l-20.22578,5.40649l-19.14714,3.24363c-9.97784,0.54104 -23.46255,-1.3513 -40.45198,-6.21718c-16.18088,-4.05604 -29.39464,-11.89505 -38.83403,-22.16826c4.04447,3.24363 6.47227,4.59622 7.28168,4.59622l1.3483,0.8107l0.80941,-0.81156l1.07821,-3.78467c0.26966,1.08078 0.80941,1.08164 1.34873,-0.27052l0.80941,-1.3513l0.80897,-0.54017l1.07778,2.16199l3.50643,-2.97355l1.88847,-0.54189l-0.53932,1.35301l-0.80941,0.80984l-1.3483,3.24535l4.31498,-1.89319l0.53889,1.89319l0.53932,0.54017l2.15771,-0.54017l1.88762,0.80984c1.34873,0.54189 1.61838,1.0825 1.34873,1.35216c-0.54017,0.54104 -0.54017,1.08164 0,1.08164l1.3483,0.8107l0.27009,-0.54017c0.53889,-2.16286 0.53889,-3.51416 0,-3.51416c-1.34873,-0.54189 -1.61796,-0.81156 -0.80941,-1.89319l0.53932,-1.35216h-1.07864l-1.34873,1.08164c0,2.16371 -0.26924,2.70388 -0.80855,1.35216c-0.53889,-1.08164 -0.53889,-1.89234 0,-2.70388l1.3483,-1.89319l-1.3483,-0.80984l1.88805,-1.35216h1.61796l1.34745,-1.89234l1.34873,-0.8107l-1.34873,2.70303l3.77609,-2.70303h1.34873v0.8107l2.6966,0.54104l-2.42694,1.3513l2.69746,1.35216c2.42651,0 2.69575,0 2.42651,0.26966c-1.07864,1.08164 -1.07864,1.3513 0,1.3513l1.61796,1.08164l1.3483,-0.54017l1.07864,-1.35301l0.80897,0.54189c0.54017,0.2688 0.80897,0 1.34873,-0.54104l0.80897,-0.8107l1.07864,-0.54189v1.3513h1.61838l1.07821,0.54189h2.15771l-1.3483,1.62096h2.69617c-2.15685,0.54189 -3.23635,1.08164 -2.69617,1.35216h2.15771l1.88762,1.08078l0.53932,0.81241h1.61838c1.34787,-0.81241 1.88805,-1.89319 0.53889,-2.16371v-1.08164l0.54017,-0.80984l-2.4278,-1.89319l1.07821,-0.81156v-1.3513l1.61796,1.89319l1.07993,2.16286l1.34787,0.80984l0.80855,-1.62096l0.80897,-0.54189c0.54061,0 0.54061,0.00085 0.54061,-0.54017l0.80813,-2.16286l1.3483,-0.8107l-0.2688,1.62182l0.80813,0.54017l0.80813,-0.54017l0.54061,2.70218l1.3483,-1.35045c0.53975,-1.3513 1.34873,-1.62182 1.88762,-1.62182c0.80941,0 1.3483,0.27052 0.80941,0.81156l-0.80941,0.8107l-1.07864,2.70303l-0.80897,1.35216h1.88762c0.80941,-1.35216 1.3483,-1.3513 1.3483,-0.27052l-1.08078,1.35258zM234.25822,276.57717v-1.08164h-1.07821l-1.34873,0.54104l1.07864,0.81156zM234.25822,279.27891c0,-0.53932 0,-1.08036 -0.53889,-1.08036l-1.3483,0.54104l0.53889,1.3513l0.27009,-0.54017zM243.15828,277.38744l1.88762,0.54104l0.80855,-0.54104l-0.80855,-0.8107h-1.88762zM248.01301,276.57717l1.34745,0.8107l1.07906,0.54104l1.34873,-1.08078l-0.53975,-0.81156l-0.80897,-0.81156l-1.07906,-0.54017l-0.26924,0.54017h-1.07821zM249.36045,279.55115l-1.34745,1.08078c-0.26966,0.27052 -0.27052,0.27052 -0.00043,0.8107c2.42651,0.54104 2.69531,0.81156 1.34787,0.81156l-0.80897,0.53932l0.80897,0.54189l1.88762,-1.89319l-0.54017,-1.89062h-1.34745zM209.98755,272.52112l-0.53975,0.81241v0.80984h0.80897l1.07906,-0.80984v-1.35216l-1.3483,0.53975zM209.98755,277.38744v0.54104h0.80897l0.53932,-0.54104l-0.53932,-1.3513v0.81156l-0.80897,0.53975zM214.03287,276.84726h-0.53932l-0.54017,1.08078h1.0795zM214.84143,276.57717l1.88762,0.27052l0.80941,-1.35216l-0.80941,-1.35216l-1.07821,-0.26966l-0.80941,1.3513zM219.42565,279.55115l1.34916,-1.35216c0.2688,-0.27052 0,-0.81156 -0.54017,-1.3513h-0.80941l-1.07821,1.89234l1.07864,0.81112zM226.16842,277.92846l1.34873,0.81156c1.34745,0.53932 1.61625,0 1.61625,-0.81156c0,-1.08078 -0.2688,-1.3513 -1.34745,-1.08078l-0.80897,-0.81156l-0.53932,0.54104zM226.43765,281.44177l1.3483,-0.53932l-0.2688,-0.81156h-1.0795v1.35087zM252.59723,282.7935c-0.54104,0.54189 -0.54104,0.81284 -0.00085,1.35301l1.34916,-0.00085c0.80855,0 1.34745,0.00085 1.34745,-0.53932l-0.53889,-1.35216h-0.80855l-0.81026,-0.81241l-0.53804,1.35173zM247.74336,284.68709l0.26966,0.26966l1.07821,-0.26966l-1.07821,-0.54189zM254.48441,280.63236l2.96755,1.62182h1.34787l0.53889,-0.81241l-0.80855,-1.35045h-1.07821l-0.27052,-0.54017l-1.07821,0.54017l-0.27095,-0.81241h-1.3483c-0.53804,0.27224 -0.53846,0.81241 0.00043,1.35345zM256.6421,276.84726l0.53932,1.3513l0.27052,0.54104l0.53846,-0.81156l0.53975,-1.3513l-1.07821,-0.54104zM270.12512,267.9249v1.35301l0.80941,-0.81156l-0.2688,-1.08164l-0.54061,0.54017zM269.317,277.38744l0.26966,0.81156h1.34787l1.07906,-0.81156l-1.07906,-0.8107h-0.80941l-0.80813,0.8107zM193.80667,271.98095l-0.53932,0.54017c0.80897,0.27052 1.3483,0.27137 1.3483,0.81241h0.80897c0,-1.35216 0,-1.89319 -0.26924,-1.35216l-1.07906,-0.81156l-0.26966,0.81112zM187.8733,278.19899l-0.53932,0.54104l0.53932,0.81156l-0.80897,0.54017l-1.07821,0.81156l1.07821,1.08078l0.80897,0.27052l1.34873,-0.81241l0.53932,-0.53932c0.27009,-1.3513 0.27009,-2.16286 0,-2.16286zM192.45751,278.19899l1.34916,1.35216l2.69746,0.54017l1.61754,-0.54017c1.07906,-0.27224 1.34916,-0.27137 1.34916,0l0.53889,1.3513l1.88762,-0.27052h0.80941l0.80855,0.80984h1.3483v-2.16286l-1.61796,-1.35045h-1.88805v-1.08078l0.80941,-1.35216l-1.61796,-0.27052l-1.3483,1.35216l-1.07906,-1.35216c0.53932,-0.54017 1.07906,-1.08078 0.53932,-1.3513l-1.34873,-1.08164v1.3513l-0.80813,1.08164l-0.53932,0.81156l-0.54017,1.3513l-0.80897,-0.54017l-1.3483,-1.35216l-1.3483,1.08164l0.53846,1.62182zM200.00971,270.62921c0.53889,0.54017 0.53889,0.8107 0,0.8107v0.54104l1.34787,0.8107l1.34916,-0.27052l-0.54017,-1.3513l-0.80941,-1.08164zM208.09992,279.55115l-0.53975,0.54017l-0.2688,0.54104c-0.54017,0.27052 -0.54017,0.8107 -0.00043,1.3513l1.3483,-0.54189l0.27009,-0.53932l0.53889,-0.81156l-0.53889,-0.54017h-0.80941zM180.32324,276.57717l1.61796,0.27052l1.88762,-0.27052v-1.08164h-0.53932l-1.3483,0.54104zM177.62578,278.19899c0.80897,1.35216 1.3483,1.35216 1.3483,1.08078l0.26924,-1.3513l-1.34787,-1.3513l-0.26966,1.62182zM183.28951,278.73959l-0.80941,0.81156l1.34873,1.08078c0.80941,0.27052 1.3483,0.27052 0.80941,-0.54104l-0.80941,-1.89234z" fill="#000000" fill-rule="evenodd" stroke="none" stroke-width="1" stroke-miterlimit="10"/><path d="M280.52308,127.24346c0.8973,0.57618 -0.24693,2.12041 -1.07821,2.15599c-0.01586,-1.09365 0.75882,-1.39718 1.07821,-2.15599zM292.74183,156.35172c-0.56805,2.69016 -1.43276,10.03657 -6.10957,8.62483c1.33373,-3.57761 4.63051,-5.19213 6.10957,-8.62483zM280.16426,152.75827c-0.53032,1.75044 -1.10437,6.55929 -4.31285,6.8281c-1.76072,-3.01641 3.56689,-4.04318 4.31285,-6.8281zM290.22613,132.99338c0.02616,-1.84689 4.2271,-1.01476 2.87494,0.35926c-1.2707,2.56284 -3.10645,4.55978 -5.74989,5.74989c1.1571,-1.83789 2.57013,-3.41941 2.87494,-6.10915zM291.04069,132.43562c-0.03216,0.012 -0.06345,0.02529 -0.09474,0.03858c0.03129,-0.01328 0.0626,-0.02616 0.09474,-0.03858zM263.95722,164.83252c0.25423,0.28466 0.50545,0.5719 0.75411,0.86299c-2.0664,-1.76672 -3.98316,-3.68306 -5.74945,-5.74945l-0.00043,-0.00043v0c-7.25809,-5.262 -21.15909,-9.30048 -26.59301,-15.81219c-2.65287,-3.17934 -2.0591,-7.64351 -5.39019,-10.78081c-0.7824,2.4518 -0.8497,5.6187 -2.15599,7.54661c0,-2.75533 0,-5.51024 0,-8.26513c-1.71271,-0.39485 -0.49473,2.14099 -1.79673,2.15599c0.54575,-0.80855 0.76224,-3.68864 -0.71852,-3.59346c-1.41132,4.09934 -0.66494,10.35554 -2.87494,13.65619c0.36741,-2.11312 0.97403,-6.42382 -0.71895,-7.54704c-3.19091,1.96092 -3.38639,10.02929 -6.4684,13.29693c0.12304,-2.87151 1.42932,-4.56064 1.4379,-7.54704c-2.36606,2.0664 -3.69163,5.17283 -3.95315,9.34334c-3.67191,1.23897 -4.21724,5.60498 -6.4684,8.26513c1.30114,-6.14859 8.63426,-12.88751 1.79717,-17.96818c-1.43147,6.3548 -2.3665,13.20604 -6.10915,17.24923c-0.13205,-1.58752 0.90758,-3.3431 1.07778,-5.39062c0.28037,-3.3671 0.08532,-8.10094 -2.15599,-9.34334c-0.9183,0.04029 -0.71338,1.20383 -0.71852,2.15599c-0.1329,1.42461 0.32882,3.44384 -0.35926,4.31241c-1.15752,-0.07889 -1.52064,0.63578 -2.87494,0.35926c-3.5626,2.73304 -2.28461,7.80642 0,10.78081c-1.16267,-0.12947 -2.07154,-1.70199 -3.2342,-0.71895c0,1.31744 0,2.6353 0,3.95315c0,1.19739 0,2.39565 0,3.59346c0.66922,3.04472 3.02713,4.39987 5.74989,5.39062c0.73095,-2.14399 1.11508,-4.63481 3.59346,-5.03136c0.93716,0.61991 0.98989,2.12513 2.15642,2.51568c3.79153,1.6021 6.85682,-0.97747 8.62483,-1.79673c2.6383,-1.22312 6.75521,-1.30328 7.18694,-3.95315c-0.85528,-1.92363 -0.13719,-4.44059 0.35926,-6.10915c-4.66695,-5.95781 7.85914,-11.5718 12.57798,-6.4684c-4.62066,-0.6675 -6.76721,1.13866 -9.34334,2.51568c0.49644,1.34616 -0.40771,2.00895 0.35926,3.2342c2.03338,0.3314 2.52425,-2.03596 4.67167,-2.51568c3.74609,-0.83728 8.38217,0.9886 9.70262,3.59346c-1.8126,-1.18153 -4.4526,-1.5365 -7.54661,-1.43747c-3.12617,1.4259 -3.90171,5.20284 -7.18736,6.4684c1.73114,3.07601 0.02701,6.30464 -1.4379,8.26557c-5.88022,0.78625 -9.20702,2.01452 -15.09324,2.51568c-1.2364,1.15967 -1.71999,3.07173 -1.4379,5.75032c3.67363,-0.85142 12.53511,1.29213 13.65619,-4.6721c5.28301,-0.59462 10.2192,-3.70579 9.70262,-7.90587c4.35914,-2.58985 12.70316,0.22593 14.01503,2.87538c-2.39522,-1.77229 -8.6677,-2.26316 -10.0623,0.71895c2.14999,0.68036 -1.2274,1.17338 -0.35926,2.87494c3.27279,0.92944 4.27984,-2.30518 7.54661,-1.79673c3.71393,0.5779 6.70076,5.98911 5.74989,10.42199c-0.75882,-3.07473 -2.47881,-5.18827 -4.67167,-6.82853c-6.84181,-1.22655 -8.54337,6.0204 -14.37429,2.51612c-2.80764,4.61766 -9.90197,2.76562 -12.57798,7.54619h-23.71763c-0.72067,-1.91419 -2.35791,-2.91224 -4.67167,-3.23377c0.1985,1.1185 0.29324,2.34205 0.71852,3.23377h-1.78773c0.03816,-3.03528 -0.90201,-5.09266 -2.52425,-6.4684c-3.99131,-0.32068 -4.97948,-3.64577 -8.26557,-4.67167c-0.14834,4.49419 0.14576,8.54595 1.89747,11.14009h-2.97526c-2.04024,-3.34996 -2.28632,-8.49451 -4.31241,-11.8586c-1.31657,1.55837 -3.7358,2.01409 -5.03136,3.59346c0.08532,3.55445 -0.40256,5.45622 0.35926,8.26513h-2.51568c-1.43618,-2.63658 -0.96588,-7.17921 -2.15599,-10.0623c-0.95688,1.30885 -1.38517,4.28284 -3.95315,2.87538c0.35541,3.14161 1.68098,6.56401 4.30813,7.18694h-5.69544c0.13719,-0.10032 0.24265,-0.21864 0.3091,-0.35926c-0.98004,-1.05678 -1.65569,-2.41751 -2.51568,-3.59389c-1.12623,-1.53908 -3.40054,1.17295 -3.2342,3.23463c0,0.23965 0,0.47887 0,0.71852h-29.23044c-0.02744,-12.20415 -0.20792,-37.40426 6.44611,-44.05831c0.04458,-0.04458 0.09346,-0.09389 0.1449,-0.14662l-0.00043,0.00343c1.22655,-0.09089 1.72643,-0.90844 3.2342,-0.71895c1.69041,1.78344 2.99327,3.95444 3.59346,6.8281c2.17486,-0.3404 3.87384,-1.15752 5.39019,-2.15642c0.2105,-2.12684 -0.35154,-3.48156 -0.71852,-5.03093c1.05849,-2.7742 4.13107,-3.53559 7.90587,-3.59346c1.53436,0.62163 0.59462,3.71736 1.79673,4.67167c5.0408,-0.96031 -0.16162,-9.82521 6.10915,-8.26513c2.50282,0.62249 1.16095,4.75871 5.03093,4.67167c1.81088,-1.18453 -0.41414,-6.40325 1.4379,-7.54704c3.16775,1.38431 5.52996,3.57374 8.26513,5.39062c2.29489,-1.41861 0.3121,-7.11447 2.51568,-8.62441c2.41536,1.53693 3.63634,4.26955 5.74989,6.10915c2.95726,-0.87586 2.22544,-5.44122 3.59346,-7.90587c2.10283,1.37102 1.97893,4.96877 4.67167,5.74989c2.17699,-1.29557 -0.29709,-4.22882 0.71852,-6.10915c1.75815,0.99675 1.6737,3.83654 4.31285,3.95315c1.53779,-2.86122 -2.51697,-4.78443 -1.4379,-7.18736c1.58966,0.56633 1.74743,2.56498 3.59346,2.87494c4.92547,-1.732 0.07802,-8.61154 2.15642,-10.78081c2.04924,0.22636 2.25974,2.29189 3.95272,2.87538c2.97998,-3.03657 -1.40831,-5.31604 -1.43747,-8.62483c2.9504,0.04416 3.5403,2.4488 6.10915,2.87538c1.21026,-2.87109 -2.59242,-5.44979 -2.15642,-7.54704c1.95407,-0.03773 1.68483,2.1487 3.95315,1.7963c0.80813,-3.84126 -3.8061,-5.26887 -4.31241,-8.98408c3.89142,-1.9202 6.62574,4.38701 9.70262,1.07821c-1.01348,-4.1375 -2.73219,-7.56977 -5.03093,-10.42155c4.29312,-3.39969 9.50884,5.75631 14.73398,1.43747c-0.29667,-2.21901 -2.70988,-2.32148 -2.51568,-5.03093c-1.19696,-1.19911 -3.64406,-1.14723 -4.31241,-2.87494c4.06333,-6.66175 8.82846,3.15146 13.65577,2.15556c0.09774,-2.25331 -1.68655,-2.62586 -1.07778,-5.39019c-0.81241,-1.9425 -3.60462,-1.90562 -3.2342,-5.03093c3.50044,0.81198 6.44998,2.17399 9.34334,3.59346c4.29612,-1.0945 7.28253,-3.49828 12.57798,-3.59346c1.18411,-0.73267 2.51997,-1.31314 3.59346,-2.15599c3.14846,-0.77897 4.58378,0.08961 6.8281,-1.07821c1.81989,-0.94702 2.20487,-4.1315 5.74989,-2.87538c1.98536,5.44122 12.1154,2.73904 11.13966,11.14051c4.59237,-1.78559 4.9109,2.29876 7.18778,4.67167c2.13885,2.22931 5.39791,3.22135 7.90587,5.03136c2.01624,1.45462 3.30193,4.03976 5.39062,5.39019c5.90379,3.81768 12.72331,6.05256 17.2488,11.14009c5.04165,3.14846 13.29093,5.43992 13.65619,6.82766c2.50453,4.25668 8.53093,8.93394 8.98408,15.09366c0.3254,4.42131 -4.34671,10.14247 -7.54661,11.85902c-1.57123,-1.5438 -2.17486,-4.05476 -3.59346,-5.74989c-1.82974,0.48616 -2.89166,1.16095 -3.23463,-1.07821c-1.6171,-0.41928 -0.38798,2.00765 -2.15599,1.4379c-1.72856,0.53032 -0.33097,-2.06468 -1.79673,-1.79673c-0.48016,0.35841 -0.70566,0.97147 -1.43747,1.07821c-1.22183,0.02357 -0.55004,-1.84603 -1.79673,-1.79673c-11.63095,2.65244 -21.19767,-5.14069 -30.90585,-7.90631c-1.46791,-0.63921 -2.56156,-3.48329 -5.03051,-3.95272c-1.23855,-0.23579 -2.87451,0.84157 -4.67167,0.71852c-2.83121,-0.1942 -5.02922,-2.33734 -6.82766,-2.15599c-1.9202,0.19378 -3.51887,2.67045 -5.39062,2.87494c-1.3543,0.14791 -1.47176,-1.21283 -2.87494,-0.35926c0.24308,2.63186 4.00074,1.74915 5.39019,3.2342v0c1.6694,1.68441 3.86742,2.84065 4.67167,5.38977v0.00043v0c-0.19806,2.48052 2.11741,4.342 1.43747,6.10915c-2.31376,1.13051 -2.12426,-3.06914 -5.74945,-1.79673c-0.25336,2.52897 0.54918,4.00245 1.79673,5.03093c0.25508,8.0825 5.0738,11.39517 9.34292,15.4525c5.03222,4.78228 9.7562,10.3581 16.17187,12.93723c2.91953,1.17338 6.50356,0.76053 7.54704,4.67167c-1.05978,1.26556 -2.56498,1.88718 -3.95315,2.15642c-11.09506,2.15127 -19.22474,-2.8625 -24.07732,-8.62483c-0.24823,-0.29152 -0.49988,-0.57919 -0.75411,-0.86385zM337.0355,188.33495c1.97464,-0.00343 3.95915,-0.00686 5.94838,-0.00772l0.00515,0.00772h-5.95352zM191.04191,184.02297c1.28313,-0.39355 1.42332,-1.93007 2.87494,-2.15599c-1.03148,-1.48377 -1.01433,-4.0166 -3.59389,-3.95315c0,0.35926 0,0.71938 0,1.07864c0.29367,1.62267 -0.69237,4.52548 0.71895,5.03051zM182.41708,170.72688c-1.05506,6.56486 2.0621,8.95794 6.10915,10.42155c0.69408,-6.20432 -3.21491,-7.806 -6.10915,-10.42155zM179.90138,173.6014c0.09732,-2.49339 -0.19592,-4.59579 -1.07821,-6.10915c-1.46748,0.5689 -2.78792,1.28528 -3.2342,2.87494c1.22955,1.28613 2.04281,2.98812 4.31241,3.2342zM186.36981,166.05478c0.48573,0.11275 0.68636,0.51103 1.43747,0.35926c-0.0836,-2.31204 -0.57748,-4.21424 -0.35883,-6.8281c-1.1541,-0.3151 -0.74511,0.93159 -1.4379,1.07821c-0.09089,-4.10192 -2.94868,-5.43607 -5.39019,-7.18736c0.18907,3.28436 2.38835,4.55893 3.2342,7.18736c-1.34186,-0.57448 -1.59738,-2.23573 -3.2342,-2.51568c-0.48616,2.05524 1.06149,2.29061 0.35926,3.59389c1.05377,-0.41071 1.33458,-0.21221 1.79673,0.71852c1.04692,1.3483 2.24517,2.54655 3.59346,3.59389zM186.01055,152.03976c-0.27352,-1.40318 -0.39485,-2.9594 -2.15599,-2.87494c-0.00043,1.67712 0.43557,2.91824 2.15599,2.87494zM187.44844,147.72735c-0.83256,1.44391 -0.12518,4.42731 -0.35969,6.4684c1.75472,-0.68722 2.77463,-5.85449 0.35969,-6.4684zM210.44713,139.82147c-1.16867,1.34787 -1.28485,3.74651 -1.4379,6.10915c2.16199,-0.35411 1.21668,-3.8151 1.4379,-6.10915zM290.58583,117.54088c1.60038,2.83121 6.30678,2.55641 10.78081,2.51525c2.96455,-5.74645 -9.67131,-8.63598 -10.78081,-2.51525zM282.67951,116.82193c3.65649,1.87733 9.06897,-3.90686 9.34334,-6.46883c0.54876,-5.12997 -4.85388,-6.67633 -7.90587,-10.78081c-2.56669,-3.45155 -3.85112,-7.37814 -7.18778,-6.10915c-2.71847,3.76152 1.75428,7.76355 1.4379,10.78081c-0.24908,2.37763 -2.183,1.69256 -2.87538,4.31241c0.28166,2.11441 2.82221,1.96993 3.23463,3.95315c1.36887,1.38689 2.34205,3.16818 3.95315,4.31241zM258.24252,101.72826c-0.00815,1.8859 2.29361,4.25411 4.31241,4.31285c2.91995,0.08489 7.1029,-6.04569 7.90631,-8.26557c1.36545,-3.77309 -1.37317,-13.42169 -4.67167,-14.01503c-1.93778,-0.34854 -4.30041,1.24156 -4.67167,2.51568c-1.28185,4.3943 2.7712,4.62194 3.23463,8.98452c-2.02609,3.07558 -6.09457,2.78234 -6.11001,6.46755zM295.61677,163.89836c0.32754,1.41518 -0.44372,4.82044 -2.15642,5.39062c-1.12365,-2.30733 1.58624,-3.60804 2.15642,-5.39062zM293.46035,161.02385c0.31853,1.76244 -1.20596,4.77843 -2.51525,6.10915c-1.92278,-2.11998 2.14656,-3.93943 2.51525,-6.10915zM286.9919,159.94564c0.03516,1.22355 -2.75791,5.78632 -5.03093,3.59389c0.66022,-2.21515 4.12249,-1.62739 5.03093,-3.59389zM281.96057,154.55498c0.19507,2.23616 -0.82356,6.36038 -3.23463,7.18736c-1.15967,-3.25564 2.50925,-4.63395 3.23463,-7.18736zM275.85141,151.3208c1.40275,0.92215 -0.88357,7.04973 -3.2342,4.31285c0.46344,-2.05224 2.77077,-2.2606 3.2342,-4.31285zM287.35117,150.96154c-0.09817,3.49786 -1.37574,8.92407 -5.03093,10.0623c-0.33697,-3.96044 4.06848,-6.21075 5.03093,-10.0623zM272.61762,149.16482c0.2568,0.98732 -0.87586,3.66763 -2.51568,3.95315c-0.23151,-2.3875 1.91334,-2.39865 2.51568,-3.95315zM271.53902,144.8524c0.18048,1.90306 -2.12813,6.19746 -4.31241,5.74989c-0.53375,-2.51397 3.59989,-3.30151 4.31241,-5.74989zM267.22701,144.8524c-0.75196,0.8347 -1.41518,3.17075 -2.87538,2.15599c0.1792,-1.49792 1.62482,-1.72899 2.87538,-2.15599zM265.0706,141.97744c0.61606,0.64007 -0.65893,2.43766 -1.79673,2.51568c-0.93845,-1.20083 1.21711,-1.70927 1.79673,-2.51568zM319.6941,139.82104c0.99075,2.96755 -2.9564,3.62218 -5.03136,4.67167c1.80874,-1.42503 2.44752,-4.02089 5.03136,-4.67167zM317.5381,137.66547c1.47176,0.6615 -1.29042,2.91395 -2.15599,3.59346c-0.50203,-0.99547 1.40746,-2.65415 2.15599,-3.59346zM315.38209,136.94653c-0.18735,2.92767 -1.94979,4.2794 -3.95359,5.39019c1.43919,-1.6754 0.94574,-5.28388 3.95359,-5.39019zM307.4758,136.22758c1.3783,1.68699 -1.60424,5.05365 -3.23463,6.10915c1.06449,-2.05053 2.21472,-4.01403 3.23463,-6.10915zM301.72589,136.22758c0.83256,1.91978 -0.75968,4.50405 -2.51568,5.03136c0.86729,-1.64839 1.81431,-3.21706 2.51568,-5.03136zM312.50674,136.58684c-0.67051,3.40183 -2.82607,5.31946 -5.75032,6.4684c1.72899,-2.04109 2.08826,-8.68828 5.75032,-6.4684zM301.72589,143.41492c0.62506,-1.77487 1.44391,-6.45898 2.87451,-8.62441c3.03056,1.753 -1.16952,7 -2.87451,8.62441zM301.36662,134.43085c-1.30672,2.16799 -3.02585,3.92272 -5.03136,5.39062c1.45119,-1.8276 1.43232,-6.89411 5.03136,-5.39062zM297.41306,133.71189c-0.96503,3.10731 -3.69722,4.44788 -5.39019,6.8281c0.57062,-1.85804 1.65698,-8.12238 5.39019,-6.8281zM289.1479,130.83737c-0.1925,3.87941 -2.73775,5.40778 -4.31285,7.90587c-0.15477,-2.19629 2.38793,-4.79557 2.51568,-7.90587c0.59934,0 1.19825,0 1.79717,0zM284.47665,129.75916c0.35926,0 0.71852,0 1.07778,0c0.00471,2.76005 -1.89447,3.61619 -2.87451,5.39019c-0.50717,-1.47476 1.6021,-3.42112 1.79673,-5.39019zM283.03879,128.32168c0.49131,1.03491 -0.7018,2.99884 -2.15599,3.2342c0.93374,-0.86342 0.53204,-3.061 2.15599,-3.2342z" fill="#000000" fill-rule="evenodd" stroke="none" stroke-width="1" stroke-miterlimit="10"/><path d="M85.94273,231.34805v-0.00085h0.00215l-0.00043,0.00129h-0.00171z" fill="#ffffff" fill-rule="nonzero" stroke="none" stroke-width="1" stroke-miterlimit="10"/><path d="M85.12432,212.56833v-0.00257h0.00343z" fill="#ffffff" fill-rule="nonzero" stroke="none" stroke-width="1" stroke-miterlimit="10"/><path d="M85.94744,231.34377c-0.00043,0.00171 -0.00085,0.00171 -0.00215,0.00343h0.02057c-0.00729,0.006 -0.01629,0.00857 -0.02272,0.01415v-0.01244h-0.00385c0.00257,-0.00171 0.00515,-0.00343 0.00815,-0.00515z" fill="#ffffff" fill-rule="nonzero" stroke="none" stroke-width="1" stroke-miterlimit="10"/><path d="M99.60361,203.28885c0.01629,-0.006 0.02229,-0.02272 0.03344,-0.03344c0.00043,0.00257 0.00043,0.006 0.00043,0.00857z" fill="#ffffff" fill-rule="nonzero" stroke="none" stroke-width="1" stroke-miterlimit="10"/><path d="M105.43968,241.56255c0.00129,-0.00257 0.00385,-0.00429 0.00429,-0.006c0.00043,0.00171 0.00043,0.00343 0.00171,0.00429c-0.00129,0 -0.00385,0.00171 -0.006,0.00171z" fill="#ffffff" fill-rule="nonzero" stroke="none" stroke-width="1" stroke-miterlimit="10"/><path d="M121.75559,244.30288c0.00215,-0.00257 0.00471,-0.00257 0.00772,-0.00515c0,0.00257 0.00043,0.00515 0.00043,0.00772c-0.00343,-0.00085 -0.00557,-0.00257 -0.00815,-0.00257z" fill="#ffffff" fill-rule="nonzero" stroke="none" stroke-width="1" stroke-miterlimit="10"/><path d="M215.28599,245.111c-0.00043,0.00429 0,0.00986 -0.00043,0.01586c-0.00644,-0.00171 -0.00944,-0.006 -0.01629,-0.00772c0.00557,-0.00385 0.01157,-0.00471 0.01672,-0.00815z" fill="#ffffff" fill-rule="nonzero" stroke="none" stroke-width="1" stroke-miterlimit="10"/><path d="M199.46695,215.52729v-0.00129h0.00215v0.00129z" fill="#ffffff" fill-rule="nonzero" stroke="none" stroke-width="1" stroke-miterlimit="10"/><path d="M193.41782,235.84267v-0.00085c-0.01672,0.01286 -0.03558,0.02187 -0.05701,0.02187c0,0 0.00085,0 0.00129,0.00085c0.02015,-0.00343 0.03773,-0.01328 0.05573,-0.02187z" fill="#ffffff" fill-rule="nonzero" stroke="none" stroke-width="1" stroke-miterlimit="10"/><path d="M201.79143,236.53847v-0.00129h0.00085v0.00129z" fill="#ffffff" fill-rule="nonzero" stroke="none" stroke-width="1" stroke-miterlimit="10"/><path d="M199.4691,215.53501c-0.003,-0.00429 -0.006,-0.00772 -0.00857,-0.01072c0.00257,0 0.00385,0.00171 0.00729,0.00171c-0.00043,-0.00085 -0.00043,-0.00257 -0.00043,-0.00343c0.00129,0 0.00171,0.00171 0.003,0.00257c0,0 -0.00043,0.00085 -0.00129,0.00085v0.009z" fill="#ffffff" fill-rule="nonzero" stroke="none" stroke-width="1" stroke-miterlimit="10"/><path d="M182.51268,243.28982l0.00171,-0.00515l0.00343,0.00343z" fill="#ffffff" fill-rule="nonzero" stroke="none" stroke-width="1" stroke-miterlimit="10"/><path d="M181.00147,228.37794v0c0.00171,0 0.00385,0.00085 0.006,0.00085c-0.00215,0.00171 -0.00471,0.00429 -0.00772,0.00686v-0.00515h0.00171v-0.00257z" fill="#ffffff" fill-rule="nonzero" stroke="none" stroke-width="1" stroke-miterlimit="10"/><path d="M306.8284,205.02144c4.26145,6.89549 4.70186,17.62043 1.19958,24.95213c-2.957,6.34603 -9.6344,10.94303 -16.08947,12.47396l-0.54107,0.6585l0.43202,12.80532c-4.15659,0.43621 -8.64033,0.43621 -12.69207,0.54526c1.20377,-21.11849 1.74904,-39.94269 -0.2223,-61.06539c10.39777,-2.5166 21.67215,0.2181 27.91333,9.6302" fill="#ffffff" fill-rule="nonzero" stroke="none" stroke-width="1" stroke-miterlimit="10"/><path d="M301.98245,206.66143c3.39322,6.56834 3.82944,16.19854 0.11325,22.65363c-3.39322,6.12794 -9.52534,9.19398 -16.19854,9.41209c-0.33135,4.48794 -0.33135,9.6302 -0.44041,13.68193c-0.43621,0.43621 -1.31282,0.32716 -1.74904,0.10905l0.65851,-37.75745l-0.65851,-16.08947c1.97135,-0.98148 4.81511,-0.21811 7.11359,-0.10905c4.5928,0.87661 8.53548,4.16078 11.16113,8.09927" fill="#ff2700" fill-rule="nonzero" stroke="none" stroke-width="1" stroke-miterlimit="10"/><path d="M299.78184,207.97425c3.17511,6.24118 3.28417,15.54003 -0.32716,21.5589c-3.17511,4.81511 -8.09927,7.65887 -13.68193,7.65887c-0.32716,-12.14681 -0.43621,-24.83888 -0.43621,-37.31704c1.42188,-0.54526 3.06187,-0.10904 4.48794,0.11325c3.93848,1.19958 8.09927,4.05173 9.95736,7.98602" fill="#ffffff" fill-rule="nonzero" stroke="none" stroke-width="1" stroke-miterlimit="10"/><path d="M376.30903,201.08296c0.43621,5.03321 -0.21811,11.05209 0.54526,15.75814c3.72037,-4.597 5.25551,-10.50263 7.11359,-16.08529c3.28417,1.20377 6.67738,2.9528 9.84831,4.8151l-9.73925,17.07096l0.32716,1.64418c3.61552,7.11359 7.55401,14.0049 11.38344,21.00944l-8.53548,4.92416l-0.87661,-1.09472c-2.62565,-5.79657 -4.92416,-11.81546 -8.20833,-17.28907c-0.87242,0 -1.31283,0.98566 -1.42188,1.63999l0.21811,16.08947c-3.28417,0.43621 -6.6732,0.10905 -9.95736,0c0.54526,-15.64907 0.21811,-33.2695 -0.76757,-48.91857" fill="#ffffff" fill-rule="nonzero" stroke="none" stroke-width="1" stroke-miterlimit="10"/><path d="M355.84066,202.18538c5.14226,4.70606 11.05209,10.28871 9.30305,18.05664c-0.87661,3.72037 -3.17512,6.89549 -6.23698,9.52114c1.31283,6.67738 3.93849,12.58721 6.23698,18.82419l-7.65887,2.51661c-2.62985,-4.48794 -4.48795,-9.52114 -7.00455,-14.00909c-1.31283,0.10905 -2.30269,1.20377 -1.86228,2.62985l0.32715,10.28452c-2.73471,0.54946 -5.90982,0.10905 -8.75358,0.43621l-0.21811,0.33135c-3.72457,0.10905 -7.44076,0.32716 -11.05628,0.10905l-0.76757,-10.83398l-1.41769,-0.65851h-8.64873l-0.54526,0.54946l-1.42188,10.50263l-9.6302,0.2223l-0.22231,-0.44041c3.17511,-16.08529 7.00455,-31.95667 9.19399,-48.58722c4.48794,-0.11324 10.06642,-0.33135 14.88151,-0.11324c1.97135,13.90005 4.27403,28.01819 8.20833,41.25972l0.33135,-0.65851c0.32716,-13.78679 0.54526,-26.91927 0.32716,-40.60121c4.70606,-0.43621 9.73925,-0.21811 14.55435,-0.10905" fill="#ffffff" fill-rule="nonzero" stroke="none" stroke-width="1" stroke-miterlimit="10"/><path d="M357.13453,208.2979c2.84376,3.39322 4.04755,7.99022 2.95281,12.47816c-0.98566,3.27996 -2.84376,6.45509 -5.80077,8.64453c1.53094,5.69172 3.61553,11.48829 5.36456,17.28907l-0.54946,0.33135l-0.76337,-0.76757c-1.97135,-5.14226 -3.82942,-10.39777 -6.01887,-15.54003c-2.62985,1.20377 -5.47362,2.08039 -8.32157,2.62566c-0.87242,4.37888 0,8.20833 -0.21811,13.02342c-0.32716,0.54526 -1.20377,0.6585 -1.74904,0.43621c0,-14.6634 0.54526,-28.56344 0,-43.00875c5.69172,-1.53094 11.16113,0.32716 15.10381,4.48794" fill="#ff2700" fill-rule="nonzero" stroke="none" stroke-width="1" stroke-miterlimit="10"/><path d="M372.25729,204.79562c0,8.75359 -0.10905,16.85286 0.65851,25.17023c6.23698,-7.54982 10.39357,-15.97623 14.11396,-24.51171c0.54946,-0.11324 0.98985,0.21811 1.31282,0.65431c-2.07619,5.69172 -5.14226,11.16113 -8.31318,16.41665c3.17092,7.33171 7.22266,14.33625 10.94303,21.5589c0.32716,0.87661 -0.76757,1.09472 -1.20377,1.42188c-3.82942,-6.78644 -6.67738,-14.2272 -10.61587,-21.00944c-2.5166,2.62565 -4.597,5.57848 -6.45509,8.64453v12.47396c-0.76757,0.44041 -2.18945,0 -1.64418,-1.20377c0.10905,-13.67774 0.10905,-27.14158 -0.44041,-40.3831c0.2223,-0.65431 2.41176,-0.65431 1.64418,0.76757" fill="#ff2700" fill-rule="nonzero" stroke="none" stroke-width="1" stroke-miterlimit="10"/><path d="M355.59591,209.9456c2.95281,3.50227 3.28417,8.64453 1.75323,12.80531c-2.19365,5.25131 -7.88117,9.19399 -13.24153,9.19399l-0.44041,-0.33135c0.10905,-8.53548 -0.32716,-18.16568 0.44041,-26.59212c4.5928,-0.32716 8.53129,1.53094 11.48829,4.92416" fill="#ffffff" fill-rule="nonzero" stroke="none" stroke-width="1" stroke-miterlimit="10"/><path d="M297.81048,213.44787c1.64418,5.90983 0.54946,12.58721 -4.5928,16.41665c-0.87661,0.65431 -1.75323,1.31282 -2.84796,1.42188c-0.65851,-8.31737 -0.65851,-17.72947 0,-26.1559c3.60713,1.20377 6.45509,4.81511 7.44076,8.31737" fill="#000000" fill-rule="nonzero" stroke="none" stroke-width="1" stroke-miterlimit="10"/><path d="M325.72315,205.23955c3.82942,13.90005 6.45929,28.34535 8.42643,42.68159h-1.31283l-1.97135,-12.69627l-0.32715,-0.43621l-16.85286,0.10905c-1.20377,3.82942 -1.53512,7.99022 -2.51661,11.81966c0,0.76757 -0.98566,0.76757 -1.53093,0.54946l-0.33136,-0.65851l8.42643,-38.74311c0.2223,-1.20377 0.32716,-3.50227 2.5208,-2.62566c1.8581,-0.21811 3.72038,-0.21811 5.46942,0" fill="#ff2700" fill-rule="nonzero" stroke="none" stroke-width="1" stroke-miterlimit="10"/><path d="M324.4026,206.66143c2.62985,8.42643 4.26983,17.40231 5.36456,26.26495c-6.01888,0.10905 -10.0706,0.44041 -15.76232,0c1.42607,-8.86264 3.17512,-17.62042 5.58267,-26.04684c1.63999,-0.65431 2.95701,0.10905 4.81511,-0.21811" fill="#ffffff" fill-rule="nonzero" stroke="none" stroke-width="1" stroke-miterlimit="10"/><path d="M353.73361,215.85542c0.43621,4.37888 -2.18945,8.75358 -6.01887,10.50682c-0.98566,0 -0.21811,-1.31282 -0.65851,-1.75323c0.11324,-4.70606 -0.21811,-10.28452 0.32715,-15.09962c3.06606,0.65431 5.47361,3.50227 6.35023,6.34603" fill="#000000" fill-rule="nonzero" stroke="none" stroke-width="1" stroke-miterlimit="10"/><path d="M325.71539,229.86452c-2.2985,0.43621 -4.81091,0.21811 -7.1136,0.10905c0.76757,-5.69172 1.31282,-11.81964 3.50227,-17.07096c2.18945,5.25131 3.06607,11.16113 3.61133,16.96191" fill="#000000" fill-rule="nonzero" stroke="none" stroke-width="1" stroke-miterlimit="10"/><path d="M99.90321,195.45535c-1.01892,17.08328 -1.01892,33.82837 -1.58259,51.58805c-0.45526,2.83132 -1.36146,5.65829 -3.85025,7.57908c-5.09029,3.84591 -12.55665,2.03786 -18.55314,1.4742l-0.45093,-0.45526c-0.45093,-3.95865 -0.45093,-8.37255 -0.56366,-12.10572c2.93971,0.56799 6.33469,1.24439 9.16167,0.11272c1.92512,-1.80805 2.03786,-4.29683 2.03786,-6.78561c0.22547,-10.06787 -0.2298,-21.27174 -1.13166,-31.11413c0.11273,-0.56366 -0.08671,-0.36421 -0.31219,-1.27041l-0.03036,-1.55658l-0.22547,-9.95514" fill="#ffffff" fill-rule="nonzero" stroke="none" stroke-width="1" stroke-miterlimit="10"/><g clip-path="url(#clip-1)" fill-rule="nonzero"><g fill="#ed1b2d" stroke="none" stroke-width="1" stroke-miterlimit="10"><path d="M92.77505,197.60159l0.45093,2.15492l0.11273,42.53478c-0.22547,3.27792 -2.14626,6.56015 -5.31577,7.69181c-2.48879,0.6764 -4.7521,1.13599 -7.57908,0.6764c-0.45526,-0.33819 -0.56799,-1.01459 -0.22547,-1.46986c3.84591,-0.33819 8.71075,0.33819 10.63153,-3.95865c1.24439,-3.50337 1.13166,-7.57909 1.13166,-11.6548l-1.13166,-35.97462c0.45526,-0.45093 1.24439,-0.33819 1.92512,0"/></g><g fill="#ff2700" stroke="#ed1b2d" stroke-width="0.11" stroke-miterlimit="4"><path d="M92.77505,197.60159l0.45093,2.15492l0.11273,42.53478c-0.22547,3.27792 -2.14626,6.56015 -5.31577,7.69181c-2.48879,0.6764 -4.7521,1.13599 -7.57908,0.6764c-0.45526,-0.33819 -0.56799,-1.01459 -0.22547,-1.46986c3.84591,-0.33819 8.71075,0.33819 10.63153,-3.95865c1.24439,-3.50337 1.13166,-7.57909 1.13166,-11.6548l-1.13166,-35.97462c0.45526,-0.45093 1.24439,-0.33819 1.92512,0z"/></g></g><path d="M229.8923,204.50427c-3.28225,2.03786 -7.35362,5.54557 -8.03002,9.5042c0,5.77103 4.97756,9.38713 7.12382,14.13923c1.69965,8.94054 -5.87941,15.04977 -10.97405,21.72266c-3.50337,-1.58259 -6.67289,-3.95865 -9.72967,-6.67289c3.50771,-2.60586 8.94054,-5.43282 9.39147,-10.41039c0.9062,-6.22197 -4.97757,-10.06787 -6.78563,-15.38363c-3.16951,-8.37255 4.29684,-14.36903 9.38713,-19.80187c3.39499,1.92512 6.45176,4.52664 9.61693,6.90268" fill="#ffffff" fill-rule="nonzero" stroke="none" stroke-width="1" stroke-miterlimit="10"/><path d="M210.66276,204.27881c-3.39499,2.60152 -7.57908,6.10923 -7.57908,10.7486c0.9062,7.35362 11.53773,11.7632 7.01541,20.24847c-2.26331,5.20736 -5.99649,9.95514 -9.72967,14.5945c-2.60586,-0.22547 -4.41391,-2.60152 -6.67722,-3.50771c-0.33819,1.13166 -0.11273,2.71859 0.22547,3.96298c-3.50337,0.45093 -6.56015,0.33819 -10.40607,0.11273l-1.13166,-11.31659c-3.05245,-1.24439 -6.90268,-0.90187 -10.29333,-0.78913l-0.68073,1.12732l-1.46986,10.0722l-9.84241,0.11273l-0.22547,-1.01892c-1.92512,0.11273 -3.62044,1.24439 -5.54556,1.58259c-2.60152,-4.29683 -4.07138,-9.38713 -6.67289,-13.80103c-0.68073,0.33819 -1.69965,0.33819 -1.92512,1.24439v12.10572l-9.39147,0.11273l0.2298,-50.56913l15.04542,0.11273c5.65395,3.16951 11.0868,9.5042 11.53773,16.40255c0.22547,5.09029 -3.16518,9.39147 -6.56015,12.78646c0.56366,4.63938 1.80805,9.38713 4.18409,13.46284l0.9062,-1.13166c3.39499,-13.68831 6.33469,-27.49369 8.37255,-41.85838l0.6764,-0.34253l14.2563,0.11273c2.03786,14.2563 4.41391,28.39987 7.46635,42.20092l0.45526,0.45093c3.50337,-2.03786 6.44742,-5.4285 6.56015,-9.5042c-0.33819,-5.87943 -5.43282,-9.84241 -7.57908,-14.9327c-2.48879,-7.91729 4.07137,-13.80103 9.16167,-19.34227c3.39499,1.80805 6.44742,4.29683 9.61693,6.56015" fill="#ffffff" fill-rule="nonzero" stroke="none" stroke-width="1" stroke-miterlimit="10"/><path d="M265.19054,205.63593c-7.46635,3.05678 -12.55665,10.74861 -12.3312,19.00407c0.2298,5.77103 2.82698,10.63586 7.01541,14.48176c2.03353,1.46986 4.29684,2.60586 6.56015,3.39499c-2.48879,2.93971 -5.65829,5.09029 -8.59801,7.35362c-10.52314,-4.41391 -14.81997,-15.72616 -14.5945,-26.47475c0.33819,-10.06787 5.20303,-19.22954 14.14357,-25.1133c2.93971,1.58259 5.4285,4.75209 7.80455,7.35361" fill="#ffffff" fill-rule="nonzero" stroke="none" stroke-width="1" stroke-miterlimit="10"/><path d="M241.31728,199.52671c-1.58259,15.61342 -1.01892,33.26038 0,49.32474c-3.50771,0.56799 -7.35361,0.45526 -10.86133,0.45526c1.35713,-16.06869 1.69965,-34.50911 -0.22547,-50.46073c3.16951,-0.56366 7.12815,0 10.86133,0" fill="#ffffff" fill-rule="nonzero" stroke="none" stroke-width="1" stroke-miterlimit="10"/><path d="M113.59587,199.52671c1.12732,11.88026 0.22114,25.1133 -0.11273,36.88082c2.37172,1.69532 5.65395,1.81239 8.59368,1.69532l0.56366,-0.78913c1.13166,-12.44825 0.22547,-25.79403 0.34253,-37.89976c3.28225,-0.45093 7.23654,-0.33819 10.86133,-0.11273c-1.24439,16.06436 -1.81239,32.46691 -1.13166,49.32474l-0.22547,0.45093l-9.27875,1.4742c-0.22547,-0.79347 0,-2.15059 -0.68073,-2.94405c-2.37605,0.56366 -4.06704,3.39499 -6.67289,2.60152c-3.72883,-1.69532 -7.57908,-3.39499 -10.857,-6.44742l-0.9062,-2.15059c-0.11273,-13.57557 0.45526,-28.84648 -1.46986,-42.30932l0.22547,-0.22547h10.29767" fill="#ffffff" fill-rule="nonzero" stroke="none" stroke-width="1" stroke-miterlimit="10"/><path d="M155.56698,207.21853c2.71425,3.62044 3.95865,8.25982 2.82698,12.89919c-1.01892,3.50771 -3.16518,6.67288 -6.22197,8.82347l5.09029,16.85782c-0.11273,0.22547 -0.33819,0.33819 -0.6764,0.33819c-2.60152,-5.09029 -4.07138,-10.63588 -6.10923,-15.95162c-2.71425,1.01892 -5.65829,2.26331 -8.82347,2.71425c-0.56799,4.52664 0,9.72967 -0.56801,13.91378h-1.35713l0.45528,-44.7981c5.42849,-0.79347 11.53773,0.56366 15.38363,5.20303" fill="#ff2700" fill-rule="nonzero" stroke="none" stroke-width="1" stroke-miterlimit="10"/><g clip-path="url(#clip-2)" fill-rule="nonzero" stroke="none" stroke-width="1" stroke-miterlimit="10"><g fill="#ff2700"><path d="M109.85834,202.69189l0.56366,36.76808c2.49312,2.37605 5.43282,3.62044 8.598,4.30118c2.94405,-1.36146 5.65829,-3.62478 8.25981,-5.99648c0.45526,-11.31659 -0.33819,-24.0987 0.11273,-35.63643c0.34253,-0.2298 0.79347,-0.11707 1.24439,-0.11707l0.22547,2.03786l0.2298,40.72672c-0.2298,0.56799 -0.79347,0.56799 -1.24439,0.68073c-0.9062,-1.58259 -0.11273,-3.95865 -0.68073,-5.65829l-8.59801,5.65829c-3.62044,-0.33819 -7.24087,-2.37605 -9.5042,-5.43282c-1.01459,-11.42499 -0.33819,-25.90676 -1.01459,-37.55722c0,-0.68073 1.92079,-0.9062 1.80805,0.22547"/></g></g><path d="M181.69921,203.71081c3.05678,14.14357 6.10921,29.07628 7.80455,43.89624c-0.6764,0.22547 -0.90187,0.11273 -1.58259,0.11273l-2.15059,-13.57557c-5.31577,-0.9062 -11.87592,-0.56799 -17.30876,-0.22547c-1.46986,4.07137 -1.46986,8.82347 -3.16518,12.89484l-1.13167,-0.22547l0.22547,-2.48879l9.16601,-41.29472c2.60152,-0.33819 5.31577,-0.56366 7.46203,-0.33819" fill="#ff2700" fill-rule="nonzero" stroke="none" stroke-width="1" stroke-miterlimit="10"/><path d="M237.13317,204.05335l-0.11273,41.63293c-0.45093,0.33819 -1.01892,0.56366 -1.58259,0.22547c-0.68073,-14.48176 0.90187,-28.73374 -0.22547,-42.76458c0.33819,-0.90187 2.60152,-0.56366 1.92079,0.9062" fill="#ff2700" fill-rule="nonzero" stroke="none" stroke-width="1" stroke-miterlimit="10"/><path d="M222.53868,203.59809v0.56366c-3.39499,3.50771 -6.10921,7.69615 -4.97756,12.78646c2.26331,6.22197 9.27874,12.21846 4.86483,19.6848c-1.46986,2.82698 -3.16951,5.54122 -5.65829,7.80455c-0.56366,0.22547 -0.78913,-0.33819 -1.24439,-0.56366c0.9062,-2.26331 3.28225,-3.84591 4.30119,-6.10921c1.92079,-3.28225 3.27792,-8.37255 1.01892,-11.88026c-2.94405,-4.63938 -6.78996,-9.61693 -4.63938,-15.61343c1.01892,-2.71425 2.82699,-5.20303 4.97757,-7.46635c0.56366,0 1.13166,0.34253 1.35713,0.79347" fill="#ff2700" fill-rule="nonzero" stroke="none" stroke-width="1" stroke-miterlimit="10"/><path d="M203.42187,203.48535c-0.56366,1.80805 -2.37606,3.28225 -3.28225,4.97757c-5.99649,8.93621 5.20736,14.70722 5.3201,22.96704c-0.34253,5.20303 -3.39499,9.49987 -6.90268,13.12031c-0.45093,0 -0.79347,-0.22546 -1.13166,-0.67639c3.62044,-4.52664 7.24089,-9.39147 5.99649,-15.61343c-2.60152,-5.77103 -8.59801,-10.7486 -6.10923,-17.98948c1.13166,-2.60152 2.48879,-5.09029 4.63938,-7.34929c0.6764,-0.11707 1.01893,0.22547 1.46986,0.56366" fill="#ff2700" fill-rule="nonzero" stroke="none" stroke-width="1" stroke-miterlimit="10"/><path d="M155.79245,211.29424c1.69532,4.18409 1.13166,9.84241 -1.58259,13.35012c-3.39499,3.73318 -7.46635,6.33469 -12.44826,6.33469c-0.22547,-9.39147 -0.11272,-18.77862 0.45528,-27.60642c5.77103,0 11.31226,2.26331 13.57557,7.92162" fill="#ffffff" fill-rule="nonzero" stroke="none" stroke-width="1" stroke-miterlimit="10"/><path d="M259.08128,203.82355v0.68073c-7.23654,6.10923 -11.53773,14.13923 -10.06353,23.64344c1.01459,6.44742 5.54122,11.42499 10.40606,16.06436c-0.56799,0.45093 -0.9062,1.01892 -1.69965,0.78913c-7.24089,-6.22197 -11.53773,-14.47743 -10.1806,-24.2071c1.13166,-6.78996 4.7521,-12.89919 10.29333,-17.42149c0.56799,-0.2298 0.9062,0.11273 1.24439,0.45093" fill="#ff2700" fill-rule="nonzero" stroke="none" stroke-width="1" stroke-miterlimit="10"/><path d="M180.11662,204.27881c2.71425,8.82347 3.62044,18.32768 5.31577,27.60209c-5.54122,0.34253 -11.0868,1.01892 -16.51529,0c1.92512,-9.04894 3.28225,-18.66588 6.10921,-27.48935c1.69532,0 3.62045,-0.45093 5.09029,-0.11273" fill="#ffffff" fill-rule="nonzero" stroke="none" stroke-width="1" stroke-miterlimit="10"/><path d="M150.47235,211.17717c1.35713,1.92512 2.37605,4.07137 1.80805,6.56448c-1.13166,3.05245 -3.39065,6.56015 -6.67288,7.57908c-0.78913,-5.3201 -0.22547,-11.54206 -0.45093,-17.19602c0.33819,-0.79347 0.9062,-0.2298 1.35713,-0.2298l0.22547,-0.45093c0.68073,1.24439 2.71425,2.26333 3.73318,3.73318" fill="#000000" fill-rule="nonzero" stroke="none" stroke-width="1" stroke-miterlimit="10"/><path d="M180.45481,222.60649c0.22547,2.03786 0.79347,3.95865 0.56366,5.99648c-2.25898,0.45093 -4.97324,0.33819 -7.34929,0.11273c0.6764,-5.88376 1.80805,-11.88026 3.84591,-17.42149c1.69532,3.39499 2.14626,7.46635 2.93973,11.31226" fill="#000000" fill-rule="nonzero" stroke="none" stroke-width="1" stroke-miterlimit="10"/></g></g></svg>